<svg width="210" height="210" viewBox="0 0 210 210" fill="none" xmlns="http://www.w3.org/2000/svg">
<path d="M132.347 210H111.094C81.6315 210 53.3751 198.296 32.541 177.463C11.707 156.63 0.00166772 128.374 0 98.9113C0 27.6323 44.2837 0 98.9118 0C160.264 0 209.2 41.9793 210 111.089V132.342C209.206 169.083 187.9 210 132.347 210Z" fill="#F15A01"/>
<path d="M88.3668 160.663C71.9615 156.689 62.4796 147.832 62.4796 147.832L75.1685 126.58C75.1685 126.58 89.9357 139.113 102.333 139.135C107.843 139.135 118.343 138.611 118.369 128.252C118.369 120.19 106.536 116.532 93.3492 109.917C80.0493 103.3 72.2591 92.9128 72.2832 81.3506C72.302 63.7776 85.4814 51.64 100.405 48.3668C101.79 46.2338 103.79 44.5711 106.14 43.5981C108.491 42.6251 111.08 42.3876 113.568 42.9169C115.311 43.2852 116.955 44.0201 118.391 45.0729C119.827 46.1257 121.023 47.4722 121.898 49.0229C129.403 50.6906 136.531 53.7423 142.917 58.0216C142.961 58.0447 147.524 61.1386 147.524 61.1386L132.71 78.2084C132.71 78.2084 121.692 70.5083 110.244 70.5083C103.851 70.4863 99.6764 72.6537 97.9586 76.2444H97.9355C97.3251 77.5597 97.0168 78.995 97.0331 80.445C97.0331 86.6286 107.534 91.0798 120.155 96.4993C132.553 101.761 146.124 112.283 146.1 126.825C146.061 149.76 130.935 159.782 112.819 162.04C111.531 163.999 109.777 165.607 107.713 166.719C105.65 167.831 103.342 168.413 100.998 168.411C98.3821 168.414 95.8167 167.691 93.5869 166.323C91.3571 164.955 89.5502 162.996 88.3668 160.663Z" fill="white"/>
<path d="M147.525 61.1328L132.713 78.2027C132.713 78.2027 121.693 70.5025 110.245 70.5025C103.852 70.4805 99.6778 72.6479 97.9611 76.2386H97.9391C113.66 43.0663 141.068 57.5631 142.919 58.0148C142.96 58.0389 147.525 61.1328 147.525 61.1328Z" fill="url(#paint0_linear_21589_71089)"/>
<defs>
<linearGradient id="paint0_linear_21589_71089" x1="61.5927" y1="29.234" x2="91.2185" y2="112.565" gradientUnits="userSpaceOnUse">
<stop offset="0.141" stop-color="#999999"/>
<stop offset="0.799" stop-color="white"/>
</linearGradient>
</defs>
</svg>
